<svg width="50" height="49" viewBox="0 0 50 49" fill="none" xmlns="http://www.w3.org/2000/svg">
    <path fill-rule="evenodd" clip-rule="evenodd" d="M48.8848 19.1826L44.293 18.0557C44.0762 17.4609 43.8262 16.8652 43.5449 16.2744L45.9365 12.2881C46.2822 11.7119 46.1914 10.9736 45.7158 10.499L39.501 4.28418C39.0264 3.80859 38.2881 3.71777 37.7119 4.06348L33.7256 6.45508C33.1348 6.17383 32.5391 5.92383 31.9443 5.70703L30.8174 1.11523C30.6562 0.460938 30.0693 0 29.3945 0H25H20.6055C19.9307 0 19.3438 0.460938 19.1826 1.11523L18.0557 5.70703C17.4609 5.92383 16.8652 6.17383 16.2744 6.45508L12.2881 4.06348C11.7119 3.71777 10.9746 3.80859 10.499 4.28418L4.28418 10.499C3.80859 10.9736 3.71777 11.7119 4.06348 12.2881L6.45508 16.2744C6.17383 16.8652 5.92383 17.4609 5.70703 18.0557L1.11523 19.1826C0.460938 19.3438 0 19.9307 0 20.6055V29.3945C0 30.0693 0.460938 30.6562 1.11523 30.8174L5.70703 31.9443C5.92383 32.5391 6.17383 33.1348 6.45508 33.7256L4.06348 37.7119C3.71777 38.2881 3.80859 39.0264 4.28418 39.501L10.499 45.7158C10.9746 46.1914 11.7119 46.2822 12.2881 45.9365L16.2744 43.5449C16.8652 43.8262 17.4609 44.0762 18.0557 44.293L19.1406 48.7139V36.8081C14.8032 34.6472 11.8164 30.1656 11.8164 24.9995C11.8164 22.3269 12.6154 19.7511 14.127 17.5508C15.6015 15.4045 17.6512 13.7542 20.0544 12.7785C20.506 12.5951 21.0193 12.6485 21.4235 12.9207C21.8279 13.1929 22.0703 13.6485 22.0703 14.1359V24.2157L25 26.1688L27.9297 24.2157V14.1358C27.9297 13.6484 28.1721 13.1929 28.5765 12.9206C28.9808 12.6485 29.494 12.5952 29.9456 12.7785C32.3488 13.7541 34.3986 15.4044 35.873 17.5507C37.3846 19.7511 38.1836 22.3269 38.1836 24.9995C38.1836 30.1656 35.1968 34.6472 30.8594 36.8081V48.7139L31.9443 44.293C32.5391 44.0762 33.1348 43.8262 33.7256 43.5449L37.7119 45.9365C38.2881 46.2822 39.0254 46.1914 39.501 45.7158L45.7158 39.501C46.1914 39.0264 46.2822 38.2881 45.9365 37.7119L43.5449 33.7256C43.8262 33.1348 44.0762 32.5391 44.293 31.9443L48.8848 30.8174C49.5391 30.6562 50 30.0693 50 29.3945V20.6055C50 19.9307 49.5391 19.3438 48.8848 19.1826Z" fill="#1BC19A"/>
</svg>
